<svg xmlns="http://www.w3.org/2000/svg" xmlns:xlink="http://www.w3.org/1999/xlink" width="82" height="36" viewBox="0 0 82 36">
    <defs>
        <path id="b" d="M20.81 15.731l-4.183-4.124 2.984-1.7a.69.69 0 0 0-.091-1.243L6.214 3.43a.71.71 0 0 0-.758.153.686.686 0 0 0-.156.747l5.308 13.122c.099.246.333.415.602.434a.705.705 0 0 0 .66-.344l1.722-2.943 4.183 4.125a.708.708 0 0 0 .994 0l2.04-2.013a.686.686 0 0 0 0-.98z"/>
        <filter id="a" width="182.5%" height="183.6%" x="-41.2%" y="-41.8%" filterUnits="objectBoundingBox">
            <feMorphology in="SourceAlpha" operator="dilate" radius=".5" result="shadowSpreadOuter1"/>
            <feOffset in="shadowSpreadOuter1" result="shadowOffsetOuter1"/>
            <feGaussianBlur in="shadowOffsetOuter1" result="shadowBlurOuter1" stdDeviation="2"/>
            <feComposite in="shadowBlurOuter1" in2="SourceAlpha" operator="out" result="shadowBlurOuter1"/>
            <feColorMatrix in="shadowBlurOuter1" values="0 0 0 0 0 0 0 0 0 0 0 0 0 0 0 0 0 0 0.5 0"/>
        </filter>
        <path id="c" d="M12.275 21.655c-3.757 0-6.802 2.985-6.802 6.666 0 .695.14 1.352.341 1.983a6.763 6.763 0 0 0 6.462 4.683 6.765 6.765 0 0 0 6.454-4.655c.208-.638.35-1.306.35-2.01-.002-3.682-3.047-6.667-6.805-6.667z"/>
        <path id="d" d="M69.42 21.655c-3.755 0-6.801 2.985-6.801 6.666 0 .622.114 1.21.276 1.782.799 2.81 3.402 4.884 6.525 4.884 3.27 0 5.997-2.262 6.651-5.275.097-.448.153-.912.153-1.39 0-3.682-3.047-6.667-6.804-6.667z"/>
    </defs>
    <g fill="none" fill-rule="evenodd">
        <g transform="translate(31.526 9.538)">
            <use fill="#000" filter="url(#a)" xlink:href="#b"/>
            <use fill="#BEDAAE" stroke="#33414F" xlink:href="#b"/>
        </g>
        <path fill="#33414F" d="M34.612 9.803a.71.71 0 0 0-.994 0 .686.686 0 0 0 0 .98l1.561 1.54a.705.705 0 0 0 .994 0 .686.686 0 0 0 0-.98l-1.561-1.54zM35.14 14.594a.698.698 0 0 0-.702-.693h-2.209a.698.698 0 0 0-.703.693c0 .383.315.693.703.693h2.209c.388 0 .703-.31.703-.693z"/>
        <g fill-rule="nonzero">
            <path stroke="#33414F" stroke-width="1.5" d="M78.84 20.062c3.473 3.405 1.695 0 1.776 6.015.07 5.217-3.198 5.313-4.068 5.247.17-.64.272-1.31.272-2.001 0-4.373-3.632-7.933-8.095-7.933-4.463 0-8.094 3.56-8.094 7.933 0 .696.1 1.369.273 2.012-12.08.008-28.88-.023-41.447-.211.138-.58.218-1.18.218-1.801 0-4.373-3.63-7.933-8.094-7.933-4.464 0-8.095 3.56-8.095 7.933 0 .441.047.87.117 1.293-.898-.079-1.446-.167-1.571-.264-1.616-1.267-.97-9.18 1.212-10.841 2.181-1.661.97-2.532 1.049-5.62.044-1.663 1.446-4.03 2.731-5.866-1.022-.292-2.023-.63-2.98-1.112-.12-.06-.195-.143-.28-.22-.396-.36-.434-.86-.231-1.294.004-.017.013-.034.02-.052.023-.045.044-.09.073-.133a1.28 1.28 0 0 1 1.072-.74c1.555-.137 3.087-.19 4.584-.667.172-.055.327-.061.476-.053l.026-.073s11.711-2.928 26.49-2.61c14.783.315 15.186 9.02 27.947 9.89 12.76.872 14.619 9.101 14.619 9.101z"/>
            <g transform="matrix(-1 0 0 1 81 1)">
                <use fill="#BEDAAE" fill-rule="evenodd" xlink:href="#c"/>
                <path stroke="#33414F" stroke-width="3" d="M12.275 23.155c-2.935 0-5.302 2.32-5.302 5.166 0 .47.089.96.27 1.526.687 2.15 2.704 3.64 5.033 3.64 2.32 0 4.332-1.48 5.027-3.62.185-.566.277-1.065.277-1.545-.001-2.847-2.37-5.167-5.305-5.167z"/>
            </g>
            <g transform="matrix(-1 0 0 1 81 1)">
                <use fill="#BEDAAE" fill-rule="evenodd" xlink:href="#d"/>
                <path stroke="#33414F" stroke-width="3" d="M69.42 23.155c-2.934 0-5.301 2.32-5.301 5.166 0 .416.071.851.219 1.372.632 2.225 2.69 3.794 5.082 3.794 2.522 0 4.672-1.728 5.185-4.092a5.06 5.06 0 0 0 .119-1.072c0-2.847-2.369-5.168-5.304-5.168z"/>
            </g>
        </g>
        <path fill="#33414F" d="M34.856 16.733l-1.562 1.54a.686.686 0 0 0 0 .98.705.705 0 0 0 .994 0l1.562-1.54a.686.686 0 0 0 0-.98.71.71 0 0 0-.994 0zM38.476 11.305c.388 0 .703-.31.703-.693V8.434a.698.698 0 0 0-.703-.693.698.698 0 0 0-.703.693v2.178c0 .383.315.693.703.693zM41.142 12.207c.18 0 .36-.068.497-.203l1.562-1.54a.686.686 0 0 0 0-.98.71.71 0 0 0-.994 0l-1.562 1.54a.687.687 0 0 0 0 .98.706.706 0 0 0 .497.203z"/>
    </g>
</svg>
