<svg xmlns="http://www.w3.org/2000/svg" xmlns:xlink="http://www.w3.org/1999/xlink" width="36" height="35" viewBox="0 0 36 35">
    <defs>
        <path id="a" d="M1.38.373l10.798 3.135a1 1 0 0 1 .375 1.717L3.95 12.653a1 1 0 0 1-1.633-.554L.122 1.537A1 1 0 0 1 1.38.373z"/>
    </defs>
    <g fill="none" fill-rule="evenodd">
        <g fill="#33414F" fill-rule="nonzero">
            <path d="M31.52 7.749a1.357 1.357 0 0 0 .128-1.947 16.57 16.57 0 0 0-.788-.819C27.568 1.77 23.192 0 18.538 0c-4.18 0-8.133 1.431-11.28 4.05L4.864 1.712A1.438 1.438 0 0 0 3.5 1.356c-.325.085 1.477 1.735 5.408 4.951 2.606-2.102 6.206-3.549 9.63-3.549 3.9 0 7.566 1.483 10.325 4.175.232.226.451.456.664.69.279.31.67.469 1.061.469.331 0 .665-.113.933-.343zM14.932 31.86a14.306 14.306 0 0 1-1.908-.732c-.738-.345-1.592.032-1.907.843-.315.813.028 1.752.768 2.097.736.346 1.502.64 2.276.874.13.04.259.058.386.058.637 0 1.223-.466 1.4-1.175.213-.85-.242-1.731-1.015-1.965zM21.324 32.023a15.22 15.22 0 0 1-1.966.215c-.784.033-1.391.68-1.357 1.442.034.741.663 1.32 1.42 1.32l.064-.001a18.21 18.21 0 0 0 2.346-.257c.773-.136 1.286-.855 1.146-1.606-.14-.75-.884-1.252-1.653-1.113zM32.129 12.026a14.3 14.3 0 0 1 .735 1.907C33.058 14.578 33.7 15 34.4 15c.14 0 .284-.017.426-.053.85-.213 1.35-1.014 1.115-1.787-.235-.775-.53-1.541-.876-2.278-.348-.738-1.285-1.08-2.096-.765-.812.316-1.187 1.17-.841 1.909zM27.585 29.273c-.57.389-1.17.743-1.786 1.054-.739.372-1.015 1.235-.617 1.926.274.476.798.747 1.34.747.243 0 .49-.055.72-.17a19.166 19.166 0 0 0 2.134-1.26c.678-.462.826-1.351.332-1.986-.494-.634-1.445-.774-2.123-.31zM33.251 24.182c-.695-.398-1.554-.12-1.927.618a16.071 16.071 0 0 1-1.051 1.787c-.463.679-.323 1.629.312 2.122.253.197.546.291.837.291.439 0 .872-.217 1.151-.626.463-.679.885-1.397 1.258-2.135.37-.74.112-1.66-.58-2.057zM34.678 17.001L34.616 17c-.735 0-1.347.596-1.38 1.36-.029.659-.1 1.32-.214 1.966-.135.773.365 1.512 1.117 1.651.082.015.165.023.246.023.656 0 1.24-.482 1.36-1.17.135-.77.22-1.559.254-2.345.033-.785-.558-1.449-1.321-1.484zM8.68 27.466a1.555 1.555 0 0 0-2.22 0 1.607 1.607 0 0 0 0 2.251c.304.308.617.604.934.887a1.555 1.555 0 0 0 2.216-.146 1.608 1.608 0 0 0-.144-2.246c-.267-.238-.53-.487-.785-.746z"/>
        </g>
        <g transform="rotate(-92 6.5 6.615)">
            <use fill="#BEDAAE" xlink:href="#a"/>
            <path stroke="#33414F" stroke-width="1.5" d="M1.171 1.093a.25.25 0 0 0-.314.291L3.05 11.947a.25.25 0 0 0 .408.138l8.604-7.428a.25.25 0 0 0-.094-.43L1.171 1.094z"/>
        </g>
    </g>
</svg>
