<?xml version="1.0" encoding="utf-8"?>
<!-- Generator: Adobe Illustrator 21.0.0, SVG Export Plug-In . SVG Version: 6.00 Build 0)  -->
<svg version="1.1" id="Layer_1" xmlns="http://www.w3.org/2000/svg" xmlns:xlink="http://www.w3.org/1999/xlink" x="0px" y="0px"
	 viewBox="0 0 105 27" style="enable-background:new 0 0 105 27;" xml:space="preserve">
<style type="text/css">
	.st0{fill:#FFFFFF;}
</style>
<g>
	<g>
		<path id="XMLID_262_" class="st0" d="M1.5,5h12c0.4,0,0.9-0.2,1.2-0.5l1.9-1.9H4.5C3.2,2.6,1.8,3.8,1.5,5z"/>
		<path id="XMLID_261_" class="st0" d="M3.2,9.3h6c0.4,0,0.9-0.2,1.2-0.5l1.9-1.9H6.2C4.9,6.9,3.5,8.1,3.2,9.3z"/>
		<path id="XMLID_260_" class="st0" d="M12.5,18L7,23.5l0,0c-0.6,0.6-1.4,1-2.3,1c-1.8,0-3.2-1.4-3.2-3.2c0-1.8,1.4-3.2,3.2-3.2
			H12.5"/>
		<path id="XMLID_259_" class="st0" d="M20.1,2.6c-0.9,0-1.8,0.4-2.4,1l-14,14c0.3-0.1,0.6-0.1,1-0.1H13L22.4,8
			c0.6-0.6,0.9-1.4,0.9-2.3C23.4,4,21.9,2.6,20.1,2.6z"/>
		<path id="XMLID_258_" class="st0" d="M12.8,18.4l-5.4,5.4c0,0-0.5,0.6-0.8,0.6h16.8C23.1,20.8,20,18,16.3,18H14h-0.9L12.8,18.4z"
			/>
	</g>
	<g>
		<path id="XMLID_255_" class="st0" d="M52.4,10.6c0,2.5-1.9,4.4-4.5,4.4c-2.6,0-4.5-1.9-4.5-4.4c0-2.5,1.9-4.4,4.5-4.4
			C50.4,6.2,52.4,8.1,52.4,10.6z M45.6,10.6c0,1.4,0.9,2.3,2.2,2.3c1.3,0,2.2-0.9,2.2-2.3s-1-2.3-2.2-2.3
			C46.6,8.3,45.6,9.3,45.6,10.6z"/>
		<path id="XMLID_252_" class="st0" d="M62.3,10.6c0,2.5-1.9,4.4-4.5,4.4c-2.6,0-4.5-1.9-4.5-4.4c0-2.5,1.9-4.4,4.5-4.4
			C60.4,6.2,62.3,8.1,62.3,10.6z M55.6,10.6c0,1.4,0.9,2.3,2.2,2.3c1.3,0,2.2-0.9,2.2-2.3s-1-2.3-2.2-2.3
			C56.5,8.3,55.6,9.3,55.6,10.6z"/>
		<path id="XMLID_250_" class="st0" d="M77.3,9.5v5.3h-1.4c-0.5,0-0.9-0.4-0.9-0.9v-3.7c0-1.2-0.6-1.9-1.6-1.9c-1,0-1.8,0.6-1.8,1.9
			v4.6h-1.4c-0.5,0-0.9-0.4-0.9-0.9v-3.7c0-1.2-0.6-1.9-1.6-1.9c-1,0-1.8,0.6-1.8,1.9v4.6h-1.4c-0.5,0-0.9-0.4-0.9-0.9V6.5h1.3
			c0.5,0,0.9,0.4,0.9,0.9v0.1c0.6-0.9,1.5-1.2,2.5-1.2c1.2,0,2.2,0.5,2.8,1.4c0.6-1.1,1.7-1.4,2.8-1.4C76,6.2,77.3,7.6,77.3,9.5z"/>
		<path id="XMLID_248_" class="st0" d="M86.5,7.8l-1.6,1.4c-0.5-0.5-1.1-0.8-1.8-0.8c-1.2,0-2.1,0.9-2.1,2.3c0,1.4,0.9,2.3,2.1,2.3
			c0.7,0,1.3-0.3,1.8-0.8l1.6,1.4c-0.8,1-2,1.6-3.4,1.6c-2.7,0-4.5-1.9-4.5-4.4c0-2.5,1.8-4.4,4.5-4.4C84.5,6.2,85.7,6.8,86.5,7.8z"
			/>
		<path id="XMLID_245_" class="st0" d="M95.7,14.8h-1.3c-0.5,0-0.9-0.4-0.9-0.9v0C93,14.6,92.2,15,91,15c-2.3,0-4-1.9-4-4.4
			s1.7-4.4,4-4.4c1.1,0,2,0.5,2.5,1.1V6.5h2.2V14.8z M89.3,10.6c0,1.3,0.8,2.3,2.2,2.3c1.3,0,2.2-1,2.2-2.3c0-1.3-0.9-2.3-2.2-2.3
			C90.1,8.3,89.3,9.4,89.3,10.6z"/>
		<path id="XMLID_243_" class="st0" d="M103.5,6.4l-0.3,2.2c-0.4-0.2-0.9-0.3-1.4-0.3c-1,0-1.8,0.6-1.8,1.9v4.6h-1.4
			c-0.5,0-0.9-0.4-0.9-0.9V6.4h1.3c0.5,0,0.9,0.4,0.9,0.9v0c0.5-0.8,1.3-1.1,2.4-1.1C102.8,6.2,103.2,6.3,103.5,6.4z"/>
		<path id="XMLID_242_" class="st0" d="M42.6,2.7l-7.2,0c-1.2,0-2.2,1-2.2,2.2v0h6.3l-6.8,8.7c-0.4,0.5,0,1.2,0.6,1.2h9.5v0
			c0-1.2-1-2.2-2.2-2.2h-4.1l6.8-8.7C43.5,3.4,43.2,2.7,42.6,2.7z"/>
	</g>
	<g id="XMLID_183_">
		<path id="XMLID_219_" class="st0" d="M38.8,22.8c-0.1-0.3-0.2-0.7-0.4-1c-0.1-0.4-0.3-0.7-0.4-1.1c-0.2-0.4-0.3-0.7-0.5-1.1
			c-0.2-0.4-0.3-0.7-0.5-1l-1,4.2h-1l1.4-5.8h0.8c0.2,0.3,0.3,0.5,0.5,0.9c0.2,0.3,0.3,0.7,0.5,1c0.2,0.4,0.3,0.7,0.5,1.1
			c0.2,0.4,0.3,0.7,0.4,1L40,17h1l-1.4,5.8H38.8z"/>
		<path id="XMLID_216_" class="st0" d="M41.2,21.2c0-0.4,0.1-0.7,0.2-1.1c0.1-0.3,0.3-0.7,0.5-0.9c0.2-0.3,0.5-0.5,0.8-0.6
			c0.3-0.2,0.7-0.2,1.1-0.2c0.4,0,0.8,0.1,1,0.3c0.2,0.2,0.4,0.5,0.4,0.8c0,0.4-0.1,0.6-0.3,0.9c-0.2,0.2-0.4,0.4-0.7,0.5
			c-0.3,0.1-0.6,0.2-0.9,0.3c-0.3,0-0.7,0.1-1.1,0.1c0,0,0,0,0,0v0.1c0,0.5,0.3,0.8,1,0.8c0.4,0,0.8-0.1,1.1-0.2l0.1,0.8
			c-0.1,0.1-0.3,0.1-0.6,0.2c-0.2,0.1-0.5,0.1-0.8,0.1c-0.3,0-0.6,0-0.8-0.1c-0.2-0.1-0.4-0.2-0.5-0.4c-0.1-0.2-0.2-0.3-0.3-0.5
			C41.2,21.6,41.2,21.4,41.2,21.2z M43.6,19.1c-0.2,0-0.3,0-0.5,0.1c-0.2,0.1-0.3,0.2-0.4,0.3c-0.1,0.1-0.2,0.3-0.3,0.4
			c-0.1,0.2-0.1,0.3-0.2,0.5c0.7,0,1.2-0.1,1.5-0.2c0.3-0.1,0.5-0.3,0.5-0.6c0-0.1,0-0.2-0.1-0.3C43.9,19.1,43.8,19.1,43.6,19.1z"/>
		<path id="XMLID_214_" class="st0" d="M46.4,22.8c-0.1-0.6-0.3-1.2-0.4-2c-0.1-0.7-0.2-1.5-0.2-2.4h1c0,0.2,0,0.5,0,0.8
			c0,0.3,0,0.6,0.1,0.9c0,0.3,0,0.6,0.1,0.8s0.1,0.5,0.1,0.7c0.1-0.2,0.3-0.4,0.5-0.7c0.2-0.3,0.3-0.5,0.5-0.8
			c0.2-0.3,0.3-0.6,0.4-0.9c0.1-0.3,0.2-0.6,0.3-0.8h1.1c-0.1,0.4-0.3,0.8-0.5,1.2c-0.2,0.4-0.4,0.8-0.7,1.2
			c-0.2,0.4-0.5,0.7-0.7,1.1c-0.2,0.3-0.5,0.6-0.7,0.9H46.4z"/>
		<path id="XMLID_211_" class="st0" d="M49.8,21.2c0-0.4,0.1-0.7,0.2-1.1c0.1-0.3,0.3-0.7,0.5-0.9c0.2-0.3,0.5-0.5,0.8-0.6
			c0.3-0.2,0.7-0.2,1.1-0.2c0.4,0,0.8,0.1,1,0.3c0.2,0.2,0.4,0.5,0.4,0.8c0,0.4-0.1,0.6-0.3,0.9c-0.2,0.2-0.4,0.4-0.7,0.5
			c-0.3,0.1-0.6,0.2-0.9,0.3c-0.3,0-0.7,0.1-1.1,0.1c0,0,0,0,0,0v0.1c0,0.5,0.3,0.8,1,0.8c0.4,0,0.8-0.1,1.1-0.2l0.1,0.8
			c-0.1,0.1-0.3,0.1-0.6,0.2c-0.2,0.1-0.5,0.1-0.8,0.1c-0.3,0-0.6,0-0.8-0.1c-0.2-0.1-0.4-0.2-0.5-0.4c-0.1-0.2-0.2-0.3-0.3-0.5
			C49.8,21.6,49.8,21.4,49.8,21.2z M52.2,19.1c-0.2,0-0.3,0-0.5,0.1c-0.2,0.1-0.3,0.2-0.4,0.3c-0.1,0.1-0.2,0.3-0.3,0.4
			c-0.1,0.2-0.1,0.3-0.2,0.5c0.7,0,1.2-0.1,1.5-0.2c0.3-0.1,0.5-0.3,0.5-0.6c0-0.1,0-0.2-0.1-0.3C52.6,19.1,52.4,19.1,52.2,19.1z"/>
		<path id="XMLID_209_" class="st0" d="M57.2,19.3c-0.1,0-0.2-0.1-0.4-0.1c-0.1,0-0.3,0-0.5,0c-0.1,0-0.2,0-0.3,0
			c-0.1,0-0.2,0-0.3,0.1L55,22.8h-1l1-4.2c0.2-0.1,0.5-0.1,0.8-0.2c0.3-0.1,0.6-0.1,0.9-0.1c0.1,0,0.1,0,0.2,0c0.1,0,0.2,0,0.2,0
			c0.1,0,0.2,0,0.2,0c0.1,0,0.1,0,0.2,0.1L57.2,19.3z"/>
		<path id="XMLID_207_" class="st0" d="M60.8,22c0.2,0,0.3,0,0.4,0c0.1,0,0.3-0.1,0.4-0.1c0.1-0.1,0.2-0.2,0.3-0.3
			c0.1-0.1,0.1-0.3,0.1-0.4c0-0.1,0-0.2-0.1-0.3c-0.1-0.1-0.1-0.2-0.2-0.2c-0.1-0.1-0.2-0.1-0.3-0.2c-0.1-0.1-0.2-0.1-0.4-0.2
			c-0.1-0.1-0.3-0.2-0.4-0.2c-0.1-0.1-0.2-0.2-0.3-0.3c-0.1-0.1-0.2-0.3-0.2-0.4c-0.1-0.2-0.1-0.3-0.1-0.6c0-0.3,0-0.5,0.1-0.7
			c0.1-0.2,0.2-0.4,0.4-0.6c0.2-0.2,0.4-0.3,0.7-0.4c0.3-0.1,0.6-0.1,1-0.1c0.2,0,0.3,0,0.5,0c0.2,0,0.3,0.1,0.4,0.1
			c0.1,0,0.3,0.1,0.4,0.1c0.1,0.1,0.2,0.1,0.3,0.1l-0.5,0.8c-0.1-0.1-0.3-0.2-0.5-0.2c-0.2-0.1-0.4-0.1-0.7-0.1c-0.2,0-0.3,0-0.4,0
			c-0.1,0-0.3,0.1-0.4,0.1c-0.1,0.1-0.2,0.1-0.2,0.3c-0.1,0.1-0.1,0.2-0.1,0.4c0,0.1,0,0.2,0.1,0.3c0,0.1,0.1,0.2,0.2,0.2
			c0.1,0.1,0.2,0.1,0.3,0.2c0.1,0.1,0.2,0.1,0.3,0.2c0.2,0.1,0.3,0.2,0.5,0.3c0.2,0.1,0.3,0.2,0.4,0.3c0.1,0.1,0.2,0.3,0.3,0.4
			c0.1,0.2,0.1,0.3,0.1,0.6c0,0.3-0.1,0.6-0.2,0.8c-0.1,0.2-0.3,0.4-0.5,0.6c-0.2,0.2-0.5,0.3-0.8,0.3c-0.3,0.1-0.6,0.1-1,0.1
			c-0.2,0-0.4,0-0.6-0.1c-0.2,0-0.4-0.1-0.5-0.1c-0.2-0.1-0.3-0.1-0.4-0.2c-0.1-0.1-0.2-0.1-0.3-0.2l0.5-0.8c0.1,0,0.1,0.1,0.2,0.1
			c0.1,0.1,0.2,0.1,0.3,0.1c0.1,0,0.2,0.1,0.4,0.1C60.5,22,60.6,22,60.8,22z"/>
		<path id="XMLID_205_" class="st0" d="M64.9,17.2l1.1-0.2l-0.3,1.3h1.4l-0.2,0.8h-1.4L65,21c0,0.1,0,0.2-0.1,0.3c0,0.1,0,0.2,0,0.2
			c0,0.1,0,0.1,0,0.2c0,0.1,0,0.1,0.1,0.2c0,0,0.1,0.1,0.2,0.1c0.1,0,0.2,0,0.3,0c0.2,0,0.3,0,0.4-0.1c0.1,0,0.3-0.1,0.4-0.1
			l0.1,0.8c-0.1,0.1-0.3,0.1-0.5,0.2c-0.2,0.1-0.4,0.1-0.7,0.1c-0.5,0-0.8-0.1-1-0.3c-0.2-0.2-0.3-0.5-0.3-0.9c0-0.1,0-0.3,0-0.4
			c0-0.1,0-0.3,0.1-0.5L64.9,17.2z"/>
		<path id="XMLID_202_" class="st0" d="M68.8,22.9c-0.5,0-0.9-0.2-1.2-0.5c-0.3-0.3-0.4-0.7-0.4-1.2c0-0.3,0.1-0.7,0.2-1
			c0.1-0.3,0.3-0.7,0.5-0.9c0.2-0.3,0.5-0.5,0.8-0.7c0.3-0.2,0.7-0.3,1.1-0.3c0.5,0,0.9,0.2,1.2,0.5c0.3,0.3,0.4,0.7,0.4,1.2
			c0,0.3,0,0.7-0.1,1c-0.1,0.3-0.2,0.7-0.5,0.9c-0.2,0.3-0.5,0.5-0.8,0.7C69.6,22.8,69.3,22.9,68.8,22.9z M69.6,19.1
			c-0.2,0-0.4,0.1-0.6,0.2c-0.2,0.1-0.3,0.3-0.4,0.5c-0.1,0.2-0.2,0.4-0.3,0.6c-0.1,0.2-0.1,0.5-0.1,0.7c0,0.3,0.1,0.5,0.2,0.7
			c0.1,0.2,0.3,0.2,0.6,0.2c0.2,0,0.4-0.1,0.6-0.2c0.2-0.1,0.3-0.3,0.4-0.5s0.2-0.4,0.3-0.6s0.1-0.5,0.1-0.7c0-0.3-0.1-0.5-0.2-0.7
			C70,19.2,69.9,19.1,69.6,19.1z"/>
		<path id="XMLID_199_" class="st0" d="M76,20c0,0.4-0.1,0.8-0.2,1.1c-0.1,0.3-0.3,0.7-0.6,0.9c-0.2,0.3-0.5,0.5-0.9,0.6
			c-0.3,0.2-0.7,0.2-1.2,0.2c-0.1,0-0.2,0-0.2,0c-0.1,0-0.2,0-0.2,0l-0.4,1.5h-1l1.4-5.7c0.2-0.1,0.5-0.2,0.8-0.2
			c0.3-0.1,0.6-0.1,0.8-0.1c0.3,0,0.5,0,0.8,0.1c0.2,0.1,0.4,0.2,0.5,0.4c0.1,0.2,0.2,0.3,0.3,0.5C76,19.5,76,19.7,76,20z M72.9,22
			c0.1,0,0.1,0,0.2,0c0.1,0,0.1,0,0.2,0c0.3,0,0.5-0.1,0.7-0.2c0.2-0.1,0.4-0.2,0.5-0.4c0.2-0.2,0.3-0.4,0.3-0.6
			C75,20.6,75,20.3,75,20c0-0.1,0-0.2,0-0.3c0-0.1-0.1-0.2-0.1-0.3c-0.1-0.1-0.2-0.2-0.3-0.2c-0.1-0.1-0.2-0.1-0.4-0.1
			c-0.1,0-0.2,0-0.3,0c-0.1,0-0.2,0-0.3,0.1L72.9,22z"/>
		<path id="XMLID_197_" class="st0" d="M82.3,21.9l-0.2,0.9h-3.6l1.4-5.8h1.1l-1.2,4.9H82.3z"/>
		<path id="XMLID_194_" class="st0" d="M83.9,22.8h-1l1.1-4.4h1L83.9,22.8z M84.6,17.7c-0.2,0-0.3,0-0.4-0.1
			c-0.1-0.1-0.2-0.2-0.2-0.4c0-0.2,0.1-0.4,0.2-0.5c0.1-0.1,0.3-0.2,0.5-0.2c0.2,0,0.3,0,0.4,0.1c0.1,0.1,0.2,0.2,0.2,0.4
			c0,0.2-0.1,0.4-0.2,0.5C85,17.7,84.8,17.7,84.6,17.7z"/>
		<path id="XMLID_192_" class="st0" d="M86.2,22.8c-0.1-0.6-0.3-1.2-0.4-2c-0.1-0.7-0.2-1.5-0.2-2.4h1c0,0.2,0,0.5,0,0.8
			s0,0.6,0.1,0.9c0,0.3,0,0.6,0.1,0.8c0,0.3,0.1,0.5,0.1,0.7c0.1-0.2,0.3-0.4,0.5-0.7c0.2-0.3,0.3-0.5,0.5-0.8
			c0.2-0.3,0.3-0.6,0.4-0.9c0.1-0.3,0.2-0.6,0.3-0.8h1.1c-0.1,0.4-0.3,0.8-0.5,1.2c-0.2,0.4-0.4,0.8-0.7,1.2
			c-0.2,0.4-0.5,0.7-0.7,1.1c-0.2,0.3-0.5,0.6-0.7,0.9H86.2z"/>
		<path id="XMLID_189_" class="st0" d="M90.4,22.8h-1l1.1-4.4h1L90.4,22.8z M91.2,17.7c-0.2,0-0.3,0-0.4-0.1
			c-0.1-0.1-0.2-0.2-0.2-0.4c0-0.2,0.1-0.4,0.2-0.5c0.1-0.1,0.3-0.2,0.5-0.2c0.2,0,0.3,0,0.4,0.1c0.1,0.1,0.2,0.2,0.2,0.4
			c0,0.2-0.1,0.4-0.2,0.5C91.5,17.7,91.4,17.7,91.2,17.7z"/>
		<path id="XMLID_187_" class="st0" d="M92.7,18.6c0.2-0.1,0.5-0.1,0.8-0.2c0.3-0.1,0.6-0.1,0.9-0.1c0.5,0,0.9,0.1,1.1,0.4
			c0.2,0.3,0.4,0.6,0.4,1c0,0.1,0,0.2,0,0.4c0,0.1,0,0.3-0.1,0.4l-0.6,2.3h-1l0.5-2.2c0-0.1,0.1-0.2,0.1-0.4c0-0.1,0-0.3,0-0.4
			c0-0.2,0-0.4-0.1-0.5c-0.1-0.1-0.3-0.2-0.6-0.2c-0.2,0-0.4,0-0.6,0.1l-0.8,3.5h-1L92.7,18.6z"/>
		<path id="XMLID_184_" class="st0" d="M97.6,23.5c0.4,0,0.7-0.1,0.9-0.3c0.2-0.2,0.3-0.4,0.4-0.8l0-0.1c-0.1,0.1-0.2,0.1-0.4,0.2
			c-0.2,0-0.3,0.1-0.5,0.1c-0.5,0-0.9-0.1-1.1-0.4c-0.2-0.3-0.4-0.6-0.4-1.1c0-0.4,0.1-0.8,0.2-1.1c0.1-0.3,0.3-0.6,0.6-0.9
			c0.3-0.2,0.6-0.4,0.9-0.6c0.4-0.1,0.8-0.2,1.2-0.2c0.2,0,0.4,0,0.7,0.1s0.5,0.1,0.7,0.2l-0.9,3.7c-0.1,0.3-0.2,0.6-0.3,0.9
			c-0.1,0.3-0.3,0.5-0.5,0.6c-0.2,0.2-0.4,0.3-0.7,0.4c-0.3,0.1-0.6,0.1-1,0.1c-0.3,0-0.6,0-0.8-0.1c-0.2-0.1-0.4-0.1-0.6-0.2
			l0.4-0.8c0.2,0.1,0.3,0.2,0.5,0.2C97.1,23.4,97.4,23.5,97.6,23.5z M98.4,21.7c0.1,0,0.3,0,0.5-0.1c0.2-0.1,0.3-0.1,0.4-0.2
			l0.5-2.2c-0.1,0-0.3,0-0.4,0c-0.3,0-0.5,0-0.7,0.1c-0.2,0.1-0.4,0.2-0.5,0.4c-0.2,0.2-0.3,0.3-0.4,0.6c-0.1,0.2-0.1,0.4-0.1,0.7
			c0,0.2,0.1,0.4,0.2,0.6C97.9,21.6,98.1,21.7,98.4,21.7z"/>
	</g>
</g>
</svg>
