<svg xmlns="http://www.w3.org/2000/svg" xmlns:xlink="http://www.w3.org/1999/xlink" width="94" height="36" viewBox="0 0 94 36">
    <defs>
        <path id="a" d="M12.275 21.655c-3.757 0-6.802 2.985-6.802 6.666 0 .695.14 1.352.341 1.983a6.763 6.763 0 0 0 6.462 4.683 6.765 6.765 0 0 0 6.454-4.655c.208-.638.35-1.306.35-2.01-.002-3.682-3.047-6.667-6.805-6.667z"/>
        <path id="b" d="M69.42 21.655c-3.755 0-6.801 2.985-6.801 6.666 0 .622.114 1.21.276 1.782.799 2.81 3.402 4.884 6.525 4.884 3.27 0 5.997-2.262 6.651-5.275.097-.448.153-.912.153-1.39 0-3.682-3.047-6.667-6.804-6.667z"/>
    </defs>
    <g fill="none" fill-rule="evenodd" transform="translate(0 1)">
        <g fill-rule="nonzero">
            <path stroke="#33414F" stroke-width="1.5" d="M90.84 19.062c3.473 3.405 1.695 0 1.776 6.015.07 5.217-3.198 5.313-4.068 5.247.17-.64.272-1.31.272-2.001 0-4.373-3.632-7.933-8.095-7.933-4.463 0-8.094 3.56-8.094 7.933 0 .696.1 1.369.273 2.012-12.08.008-28.88-.023-41.447-.211.138-.58.218-1.18.218-1.801 0-4.373-3.63-7.933-8.094-7.933-4.464 0-8.095 3.56-8.095 7.933 0 .441.047.87.117 1.293-.898-.079-1.446-.167-1.571-.264-1.616-1.267-.97-9.18 1.212-10.841 2.181-1.661.97-2.532 1.049-5.62.044-1.663 1.446-4.03 2.731-5.866-1.022-.292-2.023-.63-2.98-1.112-.12-.06-.195-.143-.28-.22-.396-.36-.434-.86-.231-1.294.004-.017.013-.034.02-.052.023-.045.044-.09.073-.133a1.28 1.28 0 0 1 1.072-.74c1.555-.137 3.087-.19 4.584-.667.172-.055.327-.061.476-.053l.026-.073S33.495-.247 48.274.071C63.058.385 63.46 9.09 76.222 9.96c12.76.872 14.619 9.101 14.619 9.101z"/>
            <g transform="matrix(-1 0 0 1 93 0)">
                <use fill="#BEDAAE" fill-rule="evenodd" xlink:href="#a"/>
                <path stroke="#33414F" stroke-width="3" d="M12.275 23.155c-2.935 0-5.302 2.32-5.302 5.166 0 .47.089.96.27 1.526.687 2.15 2.704 3.64 5.033 3.64 2.32 0 4.332-1.48 5.027-3.62.185-.566.277-1.065.277-1.545-.001-2.847-2.37-5.167-5.305-5.167z"/>
            </g>
            <g transform="matrix(-1 0 0 1 93 0)">
                <use fill="#BEDAAE" fill-rule="evenodd" xlink:href="#b"/>
                <path stroke="#33414F" stroke-width="3" d="M69.42 23.155c-2.934 0-5.301 2.32-5.301 5.166 0 .416.071.851.219 1.372.632 2.225 2.69 3.794 5.082 3.794 2.522 0 4.672-1.728 5.185-4.092a5.06 5.06 0 0 0 .119-1.072c0-2.847-2.369-5.168-5.304-5.168z"/>
            </g>
        </g>
        <rect width="10" height="2" y="10" fill="#33414F" rx="1"/>
        <rect width="7" height="1" x="3" y="15" fill="#33414F" rx=".5"/>
        <rect width="7" height="1" x="6" y="5" fill="#33414F" rx=".5"/>
    </g>
</svg>
